Renner-500-Medium.ufo
<glyph name="two" format="1">
  <advance width="604"/>
  <unicode hex="0032"/>
  <outline>
    <contour>
      <point x="20" y="0" type="line"/>
      <point x="344" y="341" type="line" smooth="yes"/>
      <point x="394" y="395"/>
      <point x="423" y="440"/>
      <point x="423" y="496" type="curve" smooth="yes"/>
      <point x="423" y="550"/>
      <point x="386" y="606"/>
      <point x="310" y="606" type="curve" smooth="yes"/>
      <point x="230" y="606"/>
      <point x="175" y="546"/>
      <point x="175" y="452" type="curve"/>
      <point x="58" y="452" type="line"/>
      <point x="58" y="601"/>
      <point x="152" y="712"/>
      <point x="312" y="712" type="curve" smooth="yes"/>
      <point x="474" y="712"/>
      <point x="546" y="594"/>
      <point x="546" y="494" type="curve" smooth="yes"/>
      <point x="546" y="421"/>
      <point x="506" y="358"/>
      <point x="449" y="304" type="curve" smooth="yes"/>
      <point x="250" y="110" type="line"/>
      <point x="554" y="110" type="line"/>
      <point x="554" y="0" type="line"/>
    </contour>
  </outline>
</glyph>
<glyph name="three" format="1">
  <advance width="576"/>
  <unicode hex="0033"/>
  <outline>
    <contour>
      <point x="262" y="342" type="curve"/>
      <point x="262" y="406" type="line"/>
      <point x="347" y="406"/>
      <point x="398" y="456"/>
      <point x="398" y="516" type="curve" smooth="yes"/>
      <point x="398" y="572"/>
      <point x="366" y="611"/>
      <point x="303" y="611" type="curve" smooth="yes"/>
      <point x="243" y="611"/>
      <point x="196" y="570"/>
      <point x="196" y="514" type="curve"/>
      <point x="85" y="514" type="line"/>
      <point x="85" y="629"/>
      <point x="173" y="711"/>
      <point x="302" y="711" type="curve" smooth="yes"/>
      <point x="437" y="711"/>
      <point x="517" y="625"/>
      <point x="517" y="522" type="curve" smooth="yes"/>
      <point x="517" y="414"/>
      <point x="410" y="342"/>
    </contour>
    <contour>
      <point x="297" y="-12" type="curve" smooth="yes"/>
      <point x="148" y="-12"/>
      <point x="55" y="85"/>
      <point x="55" y="200" type="curve"/>
      <point x="174" y="200" type="line"/>
      <point x="174" y="133"/>
      <point x="228" y="90"/>
      <point x="299" y="90" type="curve" smooth="yes"/>
      <point x="370" y="90"/>
      <point x="418" y="130"/>
      <point x="418" y="200" type="curve" smooth="yes"/>
      <point x="418" y="275"/>
      <point x="357" y="318"/>
      <point x="262" y="318" type="curve"/>
      <point x="262" y="385" type="line"/>
      <point x="417" y="385"/>
      <point x="537" y="328"/>
      <point x="537" y="188" type="curve" smooth="yes"/>
      <point x="537" y="68"/>
      <point x="441" y="-12"/>
    </contour>
  </outline>
</glyph>
<glyph name="question" format="1">
  <advance width="585"/>
  <unicode hex="003F"/>
  <outline>
    <contour>
      <point x="197" y="48" type="curve" smooth="yes"/>
      <point x="197" y="84"/>
      <point x="228" y="114"/>
      <point x="268" y="114" type="curve" smooth="yes"/>
      <point x="308" y="114"/>
      <point x="338" y="84"/>
      <point x="338" y="48" type="curve" smooth="yes"/>
      <point x="338" y="12"/>
      <point x="308" y="-19"/>
      <point x="268" y="-19" type="curve" smooth="yes"/>
      <point x="228" y="-19"/>
      <point x="197" y="12"/>
    </contour>
    <contour>
      <point x="204" y="359" type="line"/>
      <point x="318" y="359" type="line"/>
      <point x="308" y="182" type="line"/>
      <point x="224" y="182" type="line"/>
    </contour>
    <contour>
      <point x="418" y="500" type="curve" smooth="yes"/>
      <point x="418" y="575"/>
      <point x="366" y="618"/>
      <point x="284" y="618" type="curve" smooth="yes"/>
      <point x="220" y="618"/>
      <point x="169" y="585"/>
      <point x="135" y="533" type="curve"/>
      <point x="55" y="592" type="line"/>
      <point x="111" y="667"/>
      <point x="175" y="714"/>
      <point x="294" y="714" type="curve" smooth="yes"/>
      <point x="422" y="714"/>
      <point x="528" y="626"/>
      <point x="528" y="500" type="curve" smooth="yes"/>
      <point x="528" y="368"/>
      <point x="397" y="285"/>
      <point x="282" y="285" type="curve"/>
      <point x="232" y="359" type="line"/>
      <point x="352" y="359"/>
      <point x="418" y="434"/>
    </contour>
  </outline>
</glyph>
<glyph name="M" format="1">
  <advance width="842"/>
  <unicode hex="004D"/>
  <outline>
    <contour>
      <point x="626" y="498" type="line"/>
      <point x="709" y="735" type="line"/>
      <point x="805" y="0" type="line"/>
      <point x="682" y="0" type="line"/>
    </contour>
    <contour>
      <point x="134" y="735" type="line"/>
      <point x="216" y="498" type="line"/>
      <point x="160" y="0" type="line"/>
      <point x="38" y="0" type="line"/>
    </contour>
    <contour>
      <point x="709" y="735" type="line"/>
      <point x="709" y="551" type="line"/>
      <point x="421" y="65" type="line"/>
      <point x="134" y="551" type="line"/>
      <point x="134" y="735" type="line"/>
      <point x="421" y="260" type="line"/>
    </contour>
  </outline>
</glyph>
<glyph name="Q" format="1">
  <advance width="819"/>
  <unicode hex="0051"/>
  <outline>
    <contour>
      <point x="163" y="350" type="curve" smooth="yes"/>
      <point x="163" y="201"/>
      <point x="269" y="96"/>
      <point x="408" y="96" type="curve" smooth="yes"/>
      <point x="547" y="96"/>
      <point x="647" y="198"/>
      <point x="647" y="342" type="curve" smooth="yes"/>
      <point x="647" y="486"/>
      <point x="548" y="599"/>
      <point x="402" y="599" type="curve" smooth="yes"/>
      <point x="263" y="599"/>
      <point x="163" y="494"/>
    </contour>
    <contour>
      <point x="38" y="350" type="curve" smooth="yes"/>
      <point x="38" y="559"/>
      <point x="194" y="712"/>
      <point x="402" y="712" type="curve" smooth="yes"/>
      <point x="611" y="712"/>
      <point x="765" y="559"/>
      <point x="765" y="350" type="curve" smooth="yes"/>
      <point x="765" y="141"/>
      <point x="612" y="-15"/>
      <point x="402" y="-15" type="curve" smooth="yes"/>
      <point x="192" y="-15"/>
      <point x="38" y="141"/>
    </contour>
    <contour>
      <point x="370" y="300" type="line"/>
      <point x="506" y="300" type="line"/>
      <point x="821" y="-5" type="line"/>
      <point x="682" y="-5" type="line"/>
    </contour>
  </outline>
</glyph>
<glyph name="backslash" format="1">
  <advance width="527"/>
  <unicode hex="005C"/>
  <outline>
    <contour>
      <point x="15" y="700" type="line"/>
      <point x="125" y="700" type="line"/>
      <point x="512" y="0" type="line"/>
      <point x="402" y="0" type="line"/>
    </contour>
  </outline>
</glyph>
<glyph name="l" format="1">
  <advance width="246"/>
  <unicode hex="006C"/>
  <outline>
    <contour>
      <point x="69" y="780" type="line"/>
      <point x="178" y="780" type="line"/>
      <point x="178" y="0" type="line"/>
      <point x="69" y="0" type="line"/>
    </contour>
  </outline>
</glyph>
<glyph name="o" format="1">
  <advance width="563"/>
  <unicode hex="006F"/>
  <outline>
    <contour>
      <point x="34" y="230" type="curve" smooth="yes"/>
      <point x="34" y="372"/>
      <point x="141" y="470"/>
      <point x="282" y="470" type="curve" smooth="yes"/>
      <point x="423" y="470"/>
      <point x="530" y="372"/>
      <point x="530" y="230" type="curve" smooth="yes"/>
      <point x="530" y="88"/>
      <point x="423" y="-10"/>
      <point x="282" y="-10" type="curve" smooth="yes"/>
      <point x="141" y="-10"/>
      <point x="34" y="88"/>
    </contour>
    <contour>
      <point x="145" y="230" type="curve" smooth="yes"/>
      <point x="145" y="144"/>
      <point x="204" y="85"/>
      <point x="282" y="85" type="curve" smooth="yes"/>
      <point x="360" y="85"/>
      <point x="419" y="144"/>
      <point x="419" y="230" type="curve" smooth="yes"/>
      <point x="419" y="316"/>
      <point x="360" y="375"/>
      <point x="282" y="375" type="curve" smooth="yes"/>
      <point x="204" y="375"/>
      <point x="145" y="316"/>
    </contour>
  </outline>
</glyph>
<glyph name="p" format="1">
  <advance width="588"/>
  <unicode hex="0070"/>
  <outline>
    <contour>
      <point x="174" y="-220" type="line"/>
      <point x="65" y="-220" type="line"/>
      <point x="65" y="460" type="line"/>
      <point x="174" y="460" type="line"/>
    </contour>
    <contour>
      <point x="555" y="230" type="curve" smooth="yes"/>
      <point x="555" y="76"/>
      <point x="451" y="-12"/>
      <point x="331" y="-12" type="curve" smooth="yes"/>
      <point x="213" y="-12"/>
      <point x="138" y="81"/>
      <point x="138" y="230" type="curve" smooth="yes"/>
      <point x="138" y="379"/>
      <point x="213" y="472"/>
      <point x="331" y="472" type="curve" smooth="yes"/>
      <point x="451" y="472"/>
      <point x="555" y="384"/>
    </contour>
    <contour>
      <point x="443" y="230" type="curve" smooth="yes"/>
      <point x="443" y="322"/>
      <point x="379" y="374"/>
      <point x="304" y="374" type="curve" smooth="yes"/>
      <point x="242" y="374"/>
      <point x="174" y="324"/>
      <point x="174" y="230" type="curve" smooth="yes"/>
      <point x="174" y="136"/>
      <point x="242" y="86"/>
      <point x="304" y="86" type="curve" smooth="yes"/>
      <point x="379" y="86"/>
      <point x="443" y="138"/>
    </contour>
  </outline>
</glyph>
<glyph name="section" format="1">
  <advance width="475"/>
  <unicode hex="00A7"/>
  <outline>
    <contour>
      <point x="346" y="567" type="line"/>
      <point x="323" y="602"/>
      <point x="277" y="620"/>
      <point x="243" y="620" type="curve" smooth="yes"/>
      <point x="205" y="620"/>
      <point x="181" y="607"/>
      <point x="181" y="581" type="curve" smooth="yes"/>
      <point x="181" y="549"/>
      <point x="236" y="530"/>
      <point x="288" y="511" type="curve" smooth="yes"/>
      <point x="358" y="486"/>
      <point x="419" y="443"/>
      <point x="419" y="373" type="curve" smooth="yes"/>
      <point x="419" y="272"/>
      <point x="336" y="236"/>
      <point x="233" y="236" type="curve"/>
      <point x="233" y="273" type="line"/>
      <point x="278" y="275"/>
      <point x="314" y="316"/>
      <point x="314" y="356" type="curve" smooth="yes"/>
      <point x="314" y="408"/>
      <point x="256" y="426"/>
      <point x="203" y="447" type="curve" smooth="yes"/>
      <point x="142" y="471"/>
      <point x="75" y="505"/>
      <point x="75" y="585" type="curve" smooth="yes"/>
      <point x="75" y="669"/>
      <point x="159" y="716"/>
      <point x="239" y="716" type="curve" smooth="yes"/>
      <point x="315" y="716"/>
      <point x="391" y="678"/>
      <point x="413" y="631" type="curve"/>
    </contour>
    <contour>
      <point x="109" y="166" type="line"/>
      <point x="136" y="112"/>
      <point x="190" y="80"/>
      <point x="240" y="80" type="curve" smooth="yes"/>
      <point x="285" y="80"/>
      <point x="310" y="96"/>
      <point x="310" y="128" type="curve" smooth="yes"/>
      <point x="310" y="170"/>
      <point x="263" y="188"/>
      <point x="209" y="207" type="curve" smooth="yes"/>
      <point x="141" y="230"/>
      <point x="69" y="272"/>
      <point x="69" y="349" type="curve" smooth="yes"/>
      <point x="69" y="433"/>
      <point x="144" y="480"/>
      <point x="258" y="480" type="curve"/>
      <point x="258" y="449" type="line"/>
      <point x="206" y="431"/>
      <point x="174" y="410"/>
      <point x="174" y="369" type="curve" smooth="yes"/>
      <point x="174" y="305"/>
      <point x="243" y="292"/>
      <point x="294" y="271" type="curve" smooth="yes"/>
      <point x="359" y="244"/>
      <point x="421" y="202"/>
      <point x="421" y="130" type="curve" smooth="yes"/>
      <point x="421" y="28"/>
      <point x="339" y="-15"/>
      <point x="240" y="-15" type="curve" smooth="yes"/>
      <point x="145" y="-15"/>
      <point x="66" y="36"/>
      <point x="40" y="104" type="curve"/>
    </contour>
  </outline>
</glyph>
<glyph name="Adieresis" format="1">
  <advance width="690"/>
  <unicode hex="00C4"/>
  <outline>
    <contour>
      <point x="162" y="180" type="line"/>
      <point x="184" y="280" type="line"/>
      <point x="510" y="280" type="line"/>
      <point x="532" y="180" type="line"/>
    </contour>
    <contour>
      <point x="345" y="502" type="line"/>
      <point x="235" y="245" type="line"/>
      <point x="233" y="219" type="line"/>
      <point x="136" y="0" type="line"/>
      <point x="2" y="0" type="line"/>
      <point x="345" y="739" type="line"/>
      <point x="688" y="0" type="line"/>
      <point x="554" y="0" type="line"/>
      <point x="459" y="213" type="line"/>
      <point x="456" y="242" type="line"/>
    </contour>
    <contour>
      <point x="396" y="841" type="curve" smooth="yes"/>
      <point x="396" y="879"/>
      <point x="426" y="911"/>
      <point x="466" y="911" type="curve" smooth="yes"/>
      <point x="506" y="911"/>
      <point x="537" y="879"/>
      <point x="537" y="841" type="curve" smooth="yes"/>
      <point x="537" y="803"/>
      <point x="506" y="771"/>
      <point x="466" y="771" type="curve" smooth="yes"/>
      <point x="426" y="771"/>
      <point x="396" y="803"/>
    </contour>
    <contour>
      <point x="153" y="841" type="curve" smooth="yes"/>
      <point x="153" y="879"/>
      <point x="184" y="911"/>
      <point x="224" y="911" type="curve" smooth="yes"/>
      <point x="264" y="911"/>
      <point x="294" y="879"/>
      <point x="294" y="841" type="curve" smooth="yes"/>
      <point x="294" y="803"/>
      <point x="264" y="771"/>
      <point x="224" y="771" type="curve" smooth="yes"/>
      <point x="184" y="771"/>
      <point x="153" y="803"/>
    </contour>
  </outline>
</glyph>
<glyph name="Edieresis" format="1">
  <advance width="571"/>
  <unicode hex="00CB"/>
  <outline>
    <contour>
      <point x="151" y="0" type="line"/>
      <point x="151" y="104" type="line"/>
      <point x="504" y="104" type="line"/>
      <point x="504" y="0" type="line"/>
    </contour>
    <contour>
      <point x="151" y="596" type="line"/>
      <point x="151" y="700" type="line"/>
      <point x="504" y="700" type="line"/>
      <point x="504" y="596" type="line"/>
    </contour>
    <contour>
      <point x="151" y="324" type="line"/>
      <point x="151" y="426" type="line"/>
      <point x="484" y="426" type="line"/>
      <point x="484" y="324" type="line"/>
    </contour>
    <contour>
      <point x="78" y="700" type="line"/>
      <point x="194" y="700" type="line"/>
      <point x="194" y="0" type="line"/>
      <point x="78" y="0" type="line"/>
    </contour>
    <contour>
      <point x="336" y="858" type="curve" smooth="yes"/>
      <point x="336" y="896"/>
      <point x="367" y="928"/>
      <point x="407" y="928" type="curve" smooth="yes"/>
      <point x="447" y="928"/>
      <point x="478" y="896"/>
      <point x="478" y="858" type="curve" smooth="yes"/>
      <point x="478" y="820"/>
      <point x="447" y="788"/>
      <point x="407" y="788" type="curve" smooth="yes"/>
      <point x="367" y="788"/>
      <point x="336" y="820"/>
    </contour>
    <contour>
      <point x="119" y="858" type="curve" smooth="yes"/>
      <point x="119" y="896"/>
      <point x="150" y="928"/>
      <point x="190" y="928" type="curve" smooth="yes"/>
      <point x="230" y="928"/>
      <point x="260" y="896"/>
      <point x="260" y="858" type="curve" smooth="yes"/>
      <point x="260" y="820"/>
      <point x="230" y="788"/>
      <point x="190" y="788" type="curve" smooth="yes"/>
      <point x="150" y="788"/>
      <point x="119" y="820"/>
    </contour>
  </outline>
</glyph>
<glyph name="Ucircumflex" format="1">
  <advance width="656"/>
  <unicode hex="00DB"/>
  <outline>
    <contour>
      <point x="72" y="700" type="line"/>
      <point x="191" y="700" type="line"/>
      <point x="191" y="235" type="line" smooth="yes"/>
      <point x="191" y="149"/>
      <point x="238" y="91"/>
      <point x="328" y="91" type="curve" smooth="yes"/>
      <point x="418" y="91"/>
      <point x="465" y="149"/>
      <point x="465" y="235" type="curve" smooth="yes"/>
      <point x="465" y="700" type="line"/>
      <point x="584" y="700" type="line"/>
      <point x="584" y="230" type="line" smooth="yes"/>
      <point x="584" y="76"/>
      <point x="478" y="-18"/>
      <point x="328" y="-18" type="curve" smooth="yes"/>
      <point x="178" y="-18"/>
      <point x="72" y="76"/>
      <point x="72" y="230" type="curve" smooth="yes"/>
    </contour>
    <contour>
      <point x="328" y="864" type="line"/>
      <point x="226" y="772" type="line"/>
      <point x="153" y="825" type="line"/>
      <point x="328" y="965" type="line"/>
      <point x="503" y="825" type="line"/>
      <point x="430" y="772" type="line"/>
    </contour>
  </outline>
</glyph>
<glyph name="Udieresis" format="1">
  <advance width="656"/>
  <unicode hex="00DC"/>
  <outline>
    <contour>
      <point x="72" y="700" type="line"/>
      <point x="191" y="700" type="line"/>
      <point x="191" y="235" type="line" smooth="yes"/>
      <point x="191" y="149"/>
      <point x="238" y="91"/>
      <point x="328" y="91" type="curve" smooth="yes"/>
      <point x="418" y="91"/>
      <point x="465" y="149"/>
      <point x="465" y="235" type="curve" smooth="yes"/>
      <point x="465" y="700" type="line"/>
      <point x="584" y="700" type="line"/>
      <point x="584" y="230" type="line" smooth="yes"/>
      <point x="584" y="76"/>
      <point x="478" y="-18"/>
      <point x="328" y="-18" type="curve" smooth="yes"/>
      <point x="178" y="-18"/>
      <point x="72" y="76"/>
      <point x="72" y="230" type="curve" smooth="yes"/>
    </contour>
    <contour>
      <point x="371" y="842" type="curve" smooth="yes"/>
      <point x="371" y="880"/>
      <point x="402" y="912"/>
      <point x="442" y="912" type="curve" smooth="yes"/>
      <point x="482" y="912"/>
      <point x="513" y="880"/>
      <point x="513" y="842" type="curve" smooth="yes"/>
      <point x="513" y="804"/>
      <point x="482" y="772"/>
      <point x="442" y="772" type="curve" smooth="yes"/>
      <point x="402" y="772"/>
      <point x="371" y="804"/>
    </contour>
    <contour>
      <point x="143" y="842" type="curve" smooth="yes"/>
      <point x="143" y="880"/>
      <point x="174" y="912"/>
      <point x="214" y="912" type="curve" smooth="yes"/>
      <point x="254" y="912"/>
      <point x="285" y="880"/>
      <point x="285" y="842" type="curve" smooth="yes"/>
      <point x="285" y="804"/>
      <point x="254" y="772"/>
      <point x="214" y="772" type="curve" smooth="yes"/>
      <point x="174" y="772"/>
      <point x="143" y="804"/>
    </contour>
  </outline>
</glyph>
<glyph name="ccedilla" format="1">
  <advance width="484"/>
  <unicode hex="00E7"/>
  <outline>
    <contour>
      <point x="141" y="230" type="curve" smooth="yes"/>
      <point x="141" y="143"/>
      <point x="203" y="83"/>
      <point x="284" y="83" type="curve" smooth="yes"/>
      <point x="350" y="83"/>
      <point x="410" y="117"/>
      <point x="434" y="161" type="curve"/>
      <point x="434" y="42" type="line"/>
      <point x="402" y="9"/>
      <point x="345" y="-10"/>
      <point x="279" y="-10" type="curve" smooth="yes"/>
      <point x="137" y="-10"/>
      <point x="30" y="88"/>
      <point x="30" y="230" type="curve" smooth="yes"/>
      <point x="30" y="372"/>
      <point x="137" y="470"/>
      <point x="279" y="470" type="curve" smooth="yes"/>
      <point x="345" y="470"/>
      <point x="402" y="449"/>
      <point x="434" y="418" type="curve"/>
      <point x="434" y="299" type="line"/>
      <point x="410" y="343"/>
      <point x="348" y="377"/>
      <point x="284" y="377" type="curve" smooth="yes"/>
      <point x="203" y="377"/>
      <point x="141" y="315"/>
    </contour>
    <contour>
      <point x="259" y="68" type="line"/>
      <point x="339" y="67" type="line"/>
      <point x="259" y="-60" type="line"/>
      <point x="172" y="-110" type="line"/>
    </contour>
    <contour>
      <point x="367" y="-131" type="curve"/>
      <point x="294" y="-128" type="line"/>
      <point x="294" y="-103"/>
      <point x="273" y="-93"/>
      <point x="240" y="-93" type="curve" smooth="yes"/>
      <point x="230" y="-93"/>
      <point x="200" y="-94"/>
      <point x="172" y="-110" type="curve"/>
      <point x="222" y="-69" type="line"/>
      <point x="248" y="-49"/>
      <point x="267" y="-48"/>
      <point x="287" y="-48" type="curve" smooth="yes"/>
      <point x="323" y="-48"/>
      <point x="367" y="-75"/>
    </contour>
    <contour>
      <point x="367" y="-131" type="line"/>
      <point x="367" y="-197"/>
      <point x="309" y="-231"/>
      <point x="251" y="-231" type="curve" smooth="yes"/>
      <point x="207" y="-231"/>
      <point x="175" y="-222"/>
      <point x="139" y="-193" type="curve"/>
      <point x="178" y="-141" type="line"/>
      <point x="200" y="-158"/>
      <point x="219" y="-166"/>
      <point x="243" y="-166" type="curve" smooth="yes"/>
      <point x="277" y="-166"/>
      <point x="294" y="-152"/>
      <point x="294" y="-128" type="curve"/>
    </contour>
  </outline>
</glyph>
<glyph name="odieresis" format="1">
  <advance width="563"/>
  <unicode hex="00F6"/>
  <outline>
    <contour>
      <point x="34" y="230" type="curve" smooth="yes"/>
      <point x="34" y="372"/>
      <point x="141" y="470"/>
      <point x="282" y="470" type="curve" smooth="yes"/>
      <point x="423" y="470"/>
      <point x="530" y="372"/>
      <point x="530" y="230" type="curve" smooth="yes"/>
      <point x="530" y="88"/>
      <point x="423" y="-10"/>
      <point x="282" y="-10" type="curve" smooth="yes"/>
      <point x="141" y="-10"/>
      <point x="34" y="88"/>
    </contour>
    <contour>
      <point x="145" y="230" type="curve" smooth="yes"/>
      <point x="145" y="144"/>
      <point x="204" y="85"/>
      <point x="282" y="85" type="curve" smooth="yes"/>
      <point x="360" y="85"/>
      <point x="419" y="144"/>
      <point x="419" y="230" type="curve" smooth="yes"/>
      <point x="419" y="316"/>
      <point x="360" y="375"/>
      <point x="282" y="375" type="curve" smooth="yes"/>
      <point x="204" y="375"/>
      <point x="145" y="316"/>
    </contour>
    <contour>
      <point x="320" y="623" type="curve" smooth="yes"/>
      <point x="320" y="661"/>
      <point x="350" y="693"/>
      <point x="390" y="693" type="curve" smooth="yes"/>
      <point x="430" y="693"/>
      <point x="461" y="661"/>
      <point x="461" y="623" type="curve" smooth="yes"/>
      <point x="461" y="585"/>
      <point x="430" y="553"/>
      <point x="390" y="553" type="curve" smooth="yes"/>
      <point x="350" y="553"/>
      <point x="320" y="585"/>
    </contour>
    <contour>
      <point x="102" y="623" type="curve" smooth="yes"/>
      <point x="102" y="661"/>
      <point x="133" y="693"/>
      <point x="173" y="693" type="curve" smooth="yes"/>
      <point x="213" y="693"/>
      <point x="244" y="661"/>
      <point x="244" y="623" type="curve" smooth="yes"/>
      <point x="244" y="585"/>
      <point x="213" y="553"/>
      <point x="173" y="553" type="curve" smooth="yes"/>
      <point x="133" y="553"/>
      <point x="102" y="585"/>
    </contour>
  </outline>
</glyph>
<glyph name="udieresis" format="1">
  <advance width="545"/>
  <unicode hex="00FC"/>
  <outline>
    <contour>
      <point x="368" y="0" type="line"/>
      <point x="368" y="460" type="line"/>
      <point x="476" y="460" type="line"/>
      <point x="476" y="0" type="line"/>
    </contour>
    <contour>
      <point x="180" y="180" type="line" smooth="yes"/>
      <point x="180" y="113"/>
      <point x="207" y="77"/>
      <point x="266" y="77" type="curve" smooth="yes"/>
      <point x="327" y="77"/>
      <point x="368" y="119"/>
      <point x="368" y="180" type="curve"/>
      <point x="401" y="182" type="line"/>
      <point x="401" y="73"/>
      <point x="331" y="-10"/>
      <point x="229" y="-10" type="curve" smooth="yes"/>
      <point x="127" y="-10"/>
      <point x="69" y="52"/>
      <point x="69" y="168" type="curve" smooth="yes"/>
      <point x="69" y="460" type="line"/>
      <point x="180" y="460" type="line"/>
    </contour>
    <contour>
      <point x="311" y="615" type="curve" smooth="yes"/>
      <point x="311" y="653"/>
      <point x="341" y="685"/>
      <point x="381" y="685" type="curve" smooth="yes"/>
      <point x="421" y="685"/>
      <point x="452" y="653"/>
      <point x="452" y="615" type="curve" smooth="yes"/>
      <point x="452" y="577"/>
      <point x="421" y="545"/>
      <point x="381" y="545" type="curve" smooth="yes"/>
      <point x="341" y="545"/>
      <point x="311" y="577"/>
    </contour>
    <contour>
      <point x="94" y="615" type="curve" smooth="yes"/>
      <point x="94" y="653"/>
      <point x="124" y="685"/>
      <point x="164" y="685" type="curve" smooth="yes"/>
      <point x="204" y="685"/>
      <point x="235" y="653"/>
      <point x="235" y="615" type="curve" smooth="yes"/>
      <point x="235" y="577"/>
      <point x="204" y="545"/>
      <point x="164" y="545" type="curve" smooth="yes"/>
      <point x="124" y="545"/>
      <point x="94" y="577"/>
    </contour>
  </outline>
</glyph>
<glyph name="ydieresis" format="1">
  <advance width="472"/>
  <unicode hex="00FF"/>
  <outline>
    <contour>
      <point x="476" y="460" type="line"/>
      <point x="176" y="-220" type="line"/>
      <point x="61" y="-220" type="line"/>
      <point x="182" y="54" type="line"/>
      <point x="-4" y="460" type="line"/>
      <point x="120" y="460" type="line"/>
      <point x="267" y="96" type="line"/>
      <point x="216" y="99" type="line"/>
      <point x="360" y="460" type="line"/>
    </contour>
    <contour>
      <point x="274" y="600" type="curve" smooth="yes"/>
      <point x="274" y="638"/>
      <point x="305" y="670"/>
      <point x="345" y="670" type="curve" smooth="yes"/>
      <point x="385" y="670"/>
      <point x="416" y="638"/>
      <point x="416" y="600" type="curve" smooth="yes"/>
      <point x="416" y="562"/>
      <point x="385" y="530"/>
      <point x="345" y="530" type="curve" smooth="yes"/>
      <point x="305" y="530"/>
      <point x="274" y="562"/>
    </contour>
    <contour>
      <point x="57" y="600" type="curve" smooth="yes"/>
      <point x="57" y="638"/>
      <point x="88" y="670"/>
      <point x="128" y="670" type="curve" smooth="yes"/>
      <point x="168" y="670"/>
      <point x="198" y="638"/>
      <point x="198" y="600" type="curve" smooth="yes"/>
      <point x="198" y="562"/>
      <point x="168" y="530"/>
      <point x="128" y="530" type="curve" smooth="yes"/>
      <point x="88" y="530"/>
      <point x="57" y="562"/>
    </contour>
  </outline>
</glyph>
<glyph name="Aogonek" format="1">
  <advance width="690"/>
  <unicode hex="0104"/>
  <outline>
    <contour>
      <point x="162" y="180" type="line"/>
      <point x="184" y="280" type="line"/>
      <point x="510" y="280" type="line"/>
      <point x="532" y="180" type="line"/>
    </contour>
    <contour>
      <point x="345" y="502" type="line"/>
      <point x="235" y="245" type="line"/>
      <point x="233" y="219" type="line"/>
      <point x="136" y="0" type="line"/>
      <point x="2" y="0" type="line"/>
      <point x="345" y="739" type="line"/>
      <point x="688" y="0" type="line"/>
      <point x="554" y="0" type="line"/>
      <point x="459" y="213" type="line"/>
      <point x="456" y="242" type="line"/>
    </contour>
    <contour>
      <point x="672" y="-119" type="curve"/>
      <point x="704" y="-177" type="line"/>
      <point x="689" y="-197"/>
      <point x="660" y="-217"/>
      <point x="612" y="-217" type="curve" smooth="yes"/>
      <point x="536" y="-217"/>
      <point x="491" y="-179"/>
      <point x="491" y="-117" type="curve"/>
      <point x="578" y="-94" type="line"/>
      <point x="578" y="-126"/>
      <point x="594" y="-139"/>
      <point x="622" y="-139" type="curve" smooth="yes"/>
      <point x="646" y="-139"/>
      <point x="658" y="-132"/>
    </contour>
    <contour>
      <point x="578" y="-94" type="curve"/>
      <point x="491" y="-117" type="line"/>
      <point x="491" y="-55"/>
      <point x="556" y="-8"/>
      <point x="626" y="28" type="curve"/>
      <point x="666" y="3" type="line"/>
      <point x="614" y="-21"/>
      <point x="578" y="-60"/>
    </contour>
  </outline>
</glyph>
<glyph name="Ebreve" format="1">
  <advance width="571"/>
  <unicode hex="0114"/>
  <outline>
    <contour>
      <point x="151" y="0" type="line"/>
      <point x="151" y="104" type="line"/>
      <point x="504" y="104" type="line"/>
      <point x="504" y="0" type="line"/>
    </contour>
    <contour>
      <point x="151" y="596" type="line"/>
      <point x="151" y="700" type="line"/>
      <point x="504" y="700" type="line"/>
      <point x="504" y="596" type="line"/>
    </contour>
    <contour>
      <point x="151" y="324" type="line"/>
      <point x="151" y="426" type="line"/>
      <point x="484" y="426" type="line"/>
      <point x="484" y="324" type="line"/>
    </contour>
    <contour>
      <point x="78" y="700" type="line"/>
      <point x="194" y="700" type="line"/>
      <point x="194" y="0" type="line"/>
      <point x="78" y="0" type="line"/>
    </contour>
    <contour>
      <point x="130" y="915" type="curve"/>
      <point x="212" y="915" type="line"/>
      <point x="212" y="885"/>
      <point x="232" y="846"/>
      <point x="290" y="846" type="curve" smooth="yes"/>
      <point x="348" y="846"/>
      <point x="369" y="885"/>
      <point x="369" y="915" type="curve"/>
      <point x="451" y="915" type="line"/>
      <point x="451" y="841"/>
      <point x="395" y="772"/>
      <point x="290" y="772" type="curve" smooth="yes"/>
      <point x="185" y="772"/>
      <point x="130" y="841"/>
    </contour>
  </outline>
</glyph>
<glyph name="gcircumflex" format="1">
  <advance width="586"/>
  <unicode hex="011D"/>
  <outline>
    <contour>
      <point x="454" y="232" type="curve"/>
      <point x="415" y="232" type="line"/>
      <point x="415" y="326"/>
      <point x="346" y="376"/>
      <point x="284" y="376" type="curve" smooth="yes"/>
      <point x="209" y="376"/>
      <point x="146" y="324"/>
      <point x="146" y="232" type="curve"/>
      <point x="34" y="232" type="line"/>
      <point x="34" y="384"/>
      <point x="138" y="470"/>
      <point x="258" y="470" type="curve" smooth="yes"/>
      <point x="373" y="470"/>
      <point x="454" y="381"/>
    </contour>
    <contour>
      <point x="415" y="232" type="curve"/>
      <point x="454" y="232" type="line"/>
      <point x="454" y="83"/>
      <point x="373" y="-5"/>
      <point x="258" y="-5" type="curve" smooth="yes"/>
      <point x="138" y="-5"/>
      <point x="34" y="80"/>
      <point x="34" y="232" type="curve"/>
      <point x="146" y="232" type="line"/>
      <point x="146" y="140"/>
      <point x="209" y="89"/>
      <point x="284" y="89" type="curve" smooth="yes"/>
      <point x="346" y="89"/>
      <point x="415" y="138"/>
    </contour>
    <contour>
      <point x="43" y="-31" type="curve"/>
      <point x="150" y="-31" type="line"/>
      <point x="152" y="-93"/>
      <point x="202" y="-140"/>
      <point x="280" y="-140" type="curve" smooth="yes"/>
      <point x="348" y="-140"/>
      <point x="415" y="-94"/>
      <point x="415" y="10" type="curve" smooth="yes"/>
      <point x="415" y="460" type="line"/>
      <point x="521" y="460" type="line"/>
      <point x="521" y="10" type="line" smooth="yes"/>
      <point x="521" y="-156"/>
      <point x="408" y="-234"/>
      <point x="283" y="-234" type="curve" smooth="yes"/>
      <point x="133" y="-234"/>
      <point x="47" y="-151"/>
    </contour>
    <contour>
      <point x="280" y="622" type="line"/>
      <point x="178" y="530" type="line"/>
      <point x="106" y="583" type="line"/>
      <point x="280" y="723" type="line"/>
      <point x="456" y="583" type="line"/>
      <point x="383" y="530" type="line"/>
    </contour>
  </outline>
</glyph>
<glyph name="jcircumflex" format="1">
  <advance width="258"/>
  <unicode hex="0135"/>
  <outline>
    <contour>
      <point x="-24" y="-99" type="line"/>
      <point x="-10" y="-120"/>
      <point x="7" y="-125"/>
      <point x="24" y="-125" type="curve" smooth="yes"/>
      <point x="54" y="-125"/>
      <point x="72" y="-102"/>
      <point x="72" y="-44" type="curve" smooth="yes"/>
      <point x="72" y="460" type="line"/>
      <point x="179" y="460" type="line"/>
      <point x="179" y="-65" type="line" smooth="yes"/>
      <point x="179" y="-171"/>
      <point x="126" y="-228"/>
      <point x="30" y="-228" type="curve" smooth="yes"/>
      <point x="-23" y="-228"/>
      <point x="-56" y="-203"/>
      <point x="-74" y="-183" type="curve"/>
    </contour>
    <contour>
      <point x="126" y="622" type="line"/>
      <point x="23" y="530" type="line"/>
      <point x="-50" y="583" type="line"/>
      <point x="126" y="723" type="line"/>
      <point x="300" y="583" type="line"/>
      <point x="228" y="530" type="line"/>
    </contour>
  </outline>
</glyph>
<glyph name="uni0137" format="1">
  <advance width="495"/>
  <unicode hex="0137"/>
  <outline>
    <contour>
      <point x="65" y="780" type="line"/>
      <point x="171" y="780" type="line"/>
      <point x="171" y="0" type="line"/>
      <point x="65" y="0" type="line"/>
    </contour>
    <contour>
      <point x="340" y="460" type="line"/>
      <point x="472" y="460" type="line"/>
      <point x="274" y="270" type="line"/>
      <point x="492" y="0" type="line"/>
      <point x="361" y="0" type="line"/>
      <point x="142" y="270" type="line"/>
    </contour>
    <contour>
      <point x="258" y="-60" type="line"/>
      <point x="367" y="-91" type="line"/>
      <point x="251" y="-341" type="line"/>
      <point x="170" y="-319" type="line"/>
    </contour>
  </outline>
</glyph>
<glyph name="Lslash" format="1">
  <advance width="481"/>
  <unicode hex="0141"/>
  <outline>
    <contour>
      <point x="59" y="255" type="line"/>
      <point x="44" y="342" type="line"/>
      <point x="335" y="470" type="line"/>
      <point x="350" y="382" type="line"/>
    </contour>
    <contour>
      <point x="113" y="175" type="line"/>
      <point x="168" y="235" type="line"/>
      <point x="402" y="60" type="line"/>
      <point x="348" y="0" type="line"/>
    </contour>
    <contour>
      <point x="61" y="598" type="line"/>
      <point x="112" y="619" type="line"/>
      <point x="218" y="166" type="line"/>
      <point x="166" y="145" type="line"/>
    </contour>
  </outline>
</glyph>
<glyph name="Ydieresis" format="1">
  <advance width="600"/>
  <unicode hex="0178"/>
  <outline>
    <contour>
      <point x="240" y="360" type="line"/>
      <point x="360" y="360" type="line"/>
      <point x="360" y="0" type="line"/>
      <point x="240" y="0" type="line"/>
    </contour>
    <contour>
      <point x="463" y="700" type="line"/>
      <point x="598" y="700" type="line"/>
      <point x="300" y="193" type="line"/>
      <point x="2" y="700" type="line"/>
      <point x="138" y="700" type="line"/>
      <point x="300" y="400" type="line"/>
    </contour>
    <contour>
      <point x="344" y="842" type="curve" smooth="yes"/>
      <point x="344" y="880"/>
      <point x="374" y="912"/>
      <point x="414" y="912" type="curve" smooth="yes"/>
      <point x="454" y="912"/>
      <point x="485" y="880"/>
      <point x="485" y="842" type="curve" smooth="yes"/>
      <point x="485" y="804"/>
      <point x="454" y="772"/>
      <point x="414" y="772" type="curve" smooth="yes"/>
      <point x="374" y="772"/>
      <point x="344" y="804"/>
    </contour>
    <contour>
      <point x="116" y="842" type="curve" smooth="yes"/>
      <point x="116" y="880"/>
      <point x="146" y="912"/>
      <point x="186" y="912" type="curve" smooth="yes"/>
      <point x="226" y="912"/>
      <point x="258" y="880"/>
      <point x="258" y="842" type="curve" smooth="yes"/>
      <point x="258" y="804"/>
      <point x="226" y="772"/>
      <point x="186" y="772" type="curve" smooth="yes"/>
      <point x="146" y="772"/>
      <point x="116" y="804"/>
    </contour>
  </outline>
</glyph>
<glyph name="ellipsis" format="1">
  <advance width="910"/>
  <unicode hex="2026"/>
  <outline>
    <contour>
      <point x="84" y="51" type="curve" smooth="yes"/>
      <point x="84" y="89"/>
      <point x="114" y="121"/>
      <point x="154" y="121" type="curve" smooth="yes"/>
      <point x="194" y="121"/>
      <point x="225" y="89"/>
      <point x="225" y="51" type="curve" smooth="yes"/>
      <point x="225" y="13"/>
      <point x="194" y="-19"/>
      <point x="154" y="-19" type="curve" smooth="yes"/>
      <point x="114" y="-19"/>
      <point x="84" y="13"/>
    </contour>
    <contour>
      <point x="384" y="51" type="curve" smooth="yes"/>
      <point x="384" y="89"/>
      <point x="414" y="121"/>
      <point x="454" y="121" type="curve" smooth="yes"/>
      <point x="494" y="121"/>
      <point x="525" y="89"/>
      <point x="525" y="51" type="curve" smooth="yes"/>
      <point x="525" y="13"/>
      <point x="494" y="-19"/>
      <point x="454" y="-19" type="curve" smooth="yes"/>
      <point x="414" y="-19"/>
      <point x="384" y="13"/>
    </contour>
    <contour>
      <point x="684" y="51" type="curve" smooth="yes"/>
      <point x="684" y="89"/>
      <point x="714" y="121"/>
      <point x="754" y="121" type="curve" smooth="yes"/>
      <point x="794" y="121"/>
      <point x="825" y="89"/>
      <point x="825" y="51" type="curve" smooth="yes"/>
      <point x="825" y="13"/>
      <point x="794" y="-19"/>
      <point x="754" y="-19" type="curve" smooth="yes"/>
      <point x="714" y="-19"/>
      <point x="684" y="13"/>
    </contour>
  </outline>
</glyph>
<glyph name="uni2076" format="1">
  <advance width="361"/>
  <unicode hex="2076"/>
  <outline>
    <contour>
      <point x="100" y="420" type="curve" smooth="yes"/>
      <point x="100" y="368"/>
      <point x="137" y="333"/>
      <point x="185" y="333" type="curve" smooth="yes"/>
      <point x="233" y="333"/>
      <point x="269" y="368"/>
      <point x="269" y="420" type="curve" smooth="yes"/>
      <point x="269" y="472"/>
      <point x="233" y="508"/>
      <point x="185" y="508" type="curve" smooth="yes"/>
      <point x="137" y="508"/>
      <point x="100" y="472"/>
    </contour>
    <contour>
      <point x="199" y="697" type="line"/>
      <point x="290" y="697" type="line"/>
      <point x="156" y="533" type="line"/>
      <point x="146" y="531" type="line"/>
      <point x="164" y="552"/>
      <point x="184" y="556"/>
      <point x="212" y="556" type="curve" smooth="yes"/>
      <point x="278" y="556"/>
      <point x="339" y="500"/>
      <point x="339" y="420" type="curve" smooth="yes"/>
      <point x="339" y="327"/>
      <point x="271" y="270"/>
      <point x="185" y="270" type="curve" smooth="yes"/>
      <point x="99" y="270"/>
      <point x="30" y="327"/>
      <point x="30" y="420" type="curve" smooth="yes"/>
      <point x="30" y="458"/>
      <point x="46" y="492"/>
      <point x="66" y="519" type="curve" smooth="yes"/>
    </contour>
  </outline>
</glyph>
<glyph name="uni2078" format="1">
  <advance width="338"/>
  <unicode hex="2078"/>
  <outline>
    <contour>
      <point x="42" y="599" type="curve" smooth="yes"/>
      <point x="42" y="663"/>
      <point x="98" y="708"/>
      <point x="168" y="708" type="curve" smooth="yes"/>
      <point x="238" y="708"/>
      <point x="295" y="663"/>
      <point x="295" y="599" type="curve" smooth="yes"/>
      <point x="295" y="529"/>
      <point x="237" y="490"/>
      <point x="168" y="490" type="curve" smooth="yes"/>
      <point x="99" y="490"/>
      <point x="42" y="529"/>
    </contour>
    <contour>
      <point x="110" y="592" type="curve" smooth="yes"/>
      <point x="110" y="556"/>
      <point x="136" y="532"/>
      <point x="168" y="532" type="curve" smooth="yes"/>
      <point x="200" y="532"/>
      <point x="227" y="556"/>
      <point x="227" y="592" type="curve" smooth="yes"/>
      <point x="227" y="628"/>
      <point x="202" y="651"/>
      <point x="168" y="651" type="curve" smooth="yes"/>
      <point x="134" y="651"/>
      <point x="110" y="628"/>
    </contour>
    <contour>
      <point x="27" y="394" type="curve" smooth="yes"/>
      <point x="27" y="476"/>
      <point x="99" y="516"/>
      <point x="168" y="516" type="curve" smooth="yes"/>
      <point x="237" y="516"/>
      <point x="310" y="476"/>
      <point x="310" y="394" type="curve" smooth="yes"/>
      <point x="310" y="324"/>
      <point x="246" y="272"/>
      <point x="168" y="272" type="curve" smooth="yes"/>
      <point x="90" y="272"/>
      <point x="27" y="324"/>
    </contour>
    <contour>
      <point x="97" y="404" type="curve" smooth="yes"/>
      <point x="97" y="358"/>
      <point x="130" y="332"/>
      <point x="168" y="332" type="curve" smooth="yes"/>
      <point x="206" y="332"/>
      <point x="240" y="358"/>
      <point x="240" y="404" type="curve" smooth="yes"/>
      <point x="240" y="444"/>
      <point x="206" y="474"/>
      <point x="168" y="474" type="curve" smooth="yes"/>
      <point x="130" y="474"/>
      <point x="97" y="444"/>
    </contour>
  </outline>
</glyph>
<glyph name="uni2079" format="1">
  <advance width="359"/>
  <unicode hex="2079"/>
  <outline>
    <contour>
      <point x="273" y="560" type="curve" smooth="yes"/>
      <point x="273" y="612"/>
      <point x="237" y="647"/>
      <point x="189" y="647" type="curve" smooth="yes"/>
      <point x="141" y="647"/>
      <point x="104" y="612"/>
      <point x="104" y="560" type="curve" smooth="yes"/>
      <point x="104" y="508"/>
      <point x="141" y="472"/>
      <point x="189" y="472" type="curve" smooth="yes"/>
      <point x="237" y="472"/>
      <point x="273" y="508"/>
    </contour>
    <contour>
      <point x="174" y="283" type="line"/>
      <point x="84" y="283" type="line"/>
      <point x="217" y="447" type="line"/>
      <point x="227" y="449" type="line"/>
      <point x="209" y="428"/>
      <point x="189" y="424"/>
      <point x="161" y="424" type="curve" smooth="yes"/>
      <point x="95" y="424"/>
      <point x="34" y="480"/>
      <point x="34" y="560" type="curve" smooth="yes"/>
      <point x="34" y="653"/>
      <point x="103" y="710"/>
      <point x="189" y="710" type="curve" smooth="yes"/>
      <point x="275" y="710"/>
      <point x="343" y="653"/>
      <point x="343" y="560" type="curve" smooth="yes"/>
      <point x="343" y="522"/>
      <point x="327" y="488"/>
      <point x="307" y="461" type="curve" smooth="yes"/>
    </contour>
  </outline>
</glyph>
<glyph name="uni2080" format="1">
  <advance width="379"/>
  <unicode hex="2080"/>
  <outline>
    <contour>
      <point x="96" y="210" type="curve" smooth="yes"/>
      <point x="96" y="120"/>
      <point x="132" y="57"/>
      <point x="190" y="57" type="curve" smooth="yes"/>
      <point x="248" y="57"/>
      <point x="284" y="120"/>
      <point x="284" y="210" type="curve" smooth="yes"/>
      <point x="284" y="300"/>
      <point x="248" y="363"/>
      <point x="190" y="363" type="curve" smooth="yes"/>
      <point x="132" y="363"/>
      <point x="96" y="300"/>
    </contour>
    <contour>
      <point x="26" y="210" type="curve" smooth="yes"/>
      <point x="26" y="340"/>
      <point x="94" y="427"/>
      <point x="190" y="427" type="curve" smooth="yes"/>
      <point x="288" y="427"/>
      <point x="353" y="340"/>
      <point x="353" y="210" type="curve" smooth="yes"/>
      <point x="353" y="80"/>
      <point x="288" y="-7"/>
      <point x="190" y="-7" type="curve" smooth="yes"/>
      <point x="94" y="-7"/>
      <point x="26" y="80"/>
    </contour>
  </outline>
</glyph>
<glyph name="uni2088" format="1">
  <advance width="340"/>
  <unicode hex="2088"/>
  <outline>
    <contour>
      <point x="44" y="319" type="curve" smooth="yes"/>
      <point x="44" y="383"/>
      <point x="100" y="428"/>
      <point x="170" y="428" type="curve" smooth="yes"/>
      <point x="240" y="428"/>
      <point x="297" y="383"/>
      <point x="297" y="319" type="curve" smooth="yes"/>
      <point x="297" y="249"/>
      <point x="239" y="210"/>
      <point x="170" y="210" type="curve" smooth="yes"/>
      <point x="101" y="210"/>
      <point x="44" y="249"/>
    </contour>
    <contour>
      <point x="112" y="312" type="curve" smooth="yes"/>
      <point x="112" y="276"/>
      <point x="138" y="252"/>
      <point x="170" y="252" type="curve" smooth="yes"/>
      <point x="202" y="252"/>
      <point x="229" y="276"/>
      <point x="229" y="312" type="curve" smooth="yes"/>
      <point x="229" y="348"/>
      <point x="204" y="371"/>
      <point x="170" y="371" type="curve" smooth="yes"/>
      <point x="136" y="371"/>
      <point x="112" y="348"/>
    </contour>
    <contour>
      <point x="29" y="114" type="curve" smooth="yes"/>
      <point x="29" y="196"/>
      <point x="101" y="236"/>
      <point x="170" y="236" type="curve" smooth="yes"/>
      <point x="239" y="236"/>
      <point x="312" y="196"/>
      <point x="312" y="114" type="curve" smooth="yes"/>
      <point x="312" y="44"/>
      <point x="248" y="-8"/>
      <point x="170" y="-8" type="curve" smooth="yes"/>
      <point x="92" y="-8"/>
      <point x="29" y="44"/>
    </contour>
    <contour>
      <point x="99" y="124" type="curve" smooth="yes"/>
      <point x="99" y="78"/>
      <point x="132" y="52"/>
      <point x="170" y="52" type="curve" smooth="yes"/>
      <point x="208" y="52"/>
      <point x="242" y="78"/>
      <point x="242" y="124" type="curve" smooth="yes"/>
      <point x="242" y="164"/>
      <point x="208" y="194"/>
      <point x="170" y="194" type="curve" smooth="yes"/>
      <point x="132" y="194"/>
      <point x="99" y="164"/>
    </contour>
  </outline>
</glyph>
<glyph name="uniFF11" format="1">
  <advance width="600"/>
  <unicode hex="FF11"/>
  <outline>
    <contour>
      <point x="112" y="536" type="line"/>
      <point x="112" y="648" type="line"/>
      <point x="391" y="711" type="line"/>
      <point x="391" y="0" type="line"/>
      <point x="275" y="0" type="line"/>
      <point x="275" y="581" type="line"/>
    </contour>
  </outline>
</glyph>
<glyph name="uniFF15" format="1">
  <advance width="600"/>
  <unicode hex="FF15"/>
  <outline>
    <contour>
      <point x="556" y="228" type="curve" smooth="yes"/>
      <point x="556" y="66"/>
      <point x="431" y="-11"/>
      <point x="296" y="-11" type="curve" smooth="yes"/>
      <point x="167" y="-11"/>
      <point x="88" y="45"/>
      <point x="34" y="113" type="curve"/>
      <point x="104" y="198" type="line"/>
      <point x="145" y="143"/>
      <point x="213" y="99"/>
      <point x="280" y="99" type="curve" smooth="yes"/>
      <point x="374" y="99"/>
      <point x="429" y="150"/>
      <point x="429" y="235" type="curve" smooth="yes"/>
      <point x="429" y="320"/>
      <point x="361" y="370"/>
      <point x="280" y="370" type="curve" smooth="yes"/>
      <point x="218" y="370"/>
      <point x="165" y="358"/>
      <point x="94" y="314" type="curve"/>
      <point x="172" y="388" type="line"/>
      <point x="220" y="440"/>
      <point x="281" y="461"/>
      <point x="345" y="461" type="curve" smooth="yes"/>
      <point x="461" y="461"/>
      <point x="556" y="370"/>
    </contour>
    <contour>
      <point x="278" y="596" type="line"/>
      <point x="223" y="402" type="line"/>
      <point x="94" y="314" type="line"/>
      <point x="188" y="700" type="line"/>
      <point x="548" y="700" type="line"/>
      <point x="548" y="596" type="line"/>
    </contour>
  </outline>
</glyph>
<glyph name="aacute.alt" format="1">
  <advance width="588"/>
  <outline>
    <contour>
      <point x="419" y="460" type="line"/>
      <point x="524" y="460" type="line"/>
      <point x="524" y="0" type="line"/>
      <point x="419" y="0" type="line"/>
    </contour>
    <contour>
      <point x="34" y="230" type="curve" smooth="yes"/>
      <point x="34" y="384"/>
      <point x="138" y="472"/>
      <point x="258" y="472" type="curve" smooth="yes"/>
      <point x="376" y="472"/>
      <point x="451" y="379"/>
      <point x="451" y="230" type="curve" smooth="yes"/>
      <point x="451" y="81"/>
      <point x="376" y="-12"/>
      <point x="258" y="-12" type="curve" smooth="yes"/>
      <point x="138" y="-12"/>
      <point x="34" y="76"/>
    </contour>
    <contour>
      <point x="146" y="230" type="curve" smooth="yes"/>
      <point x="146" y="138"/>
      <point x="209" y="86"/>
      <point x="284" y="86" type="curve" smooth="yes"/>
      <point x="346" y="86"/>
      <point x="415" y="136"/>
      <point x="415" y="230" type="curve" smooth="yes"/>
      <point x="415" y="324"/>
      <point x="346" y="374"/>
      <point x="284" y="374" type="curve" smooth="yes"/>
      <point x="209" y="374"/>
      <point x="146" y="322"/>
    </contour>
    <contour>
      <point x="407" y="684" type="line"/>
      <point x="227" y="534" type="line"/>
      <point x="166" y="569" type="line"/>
      <point x="316" y="729" type="line"/>
    </contour>
  </outline>
</glyph>
<glyph name="adieresis.alt" format="1">
  <advance width="588"/>
  <outline>
    <contour>
      <point x="419" y="460" type="line"/>
      <point x="524" y="460" type="line"/>
      <point x="524" y="0" type="line"/>
      <point x="419" y="0" type="line"/>
    </contour>
    <contour>
      <point x="34" y="230" type="curve" smooth="yes"/>
      <point x="34" y="384"/>
      <point x="138" y="472"/>
      <point x="258" y="472" type="curve" smooth="yes"/>
      <point x="376" y="472"/>
      <point x="451" y="379"/>
      <point x="451" y="230" type="curve" smooth="yes"/>
      <point x="451" y="81"/>
      <point x="376" y="-12"/>
      <point x="258" y="-12" type="curve" smooth="yes"/>
      <point x="138" y="-12"/>
      <point x="34" y="76"/>
    </contour>
    <contour>
      <point x="146" y="230" type="curve" smooth="yes"/>
      <point x="146" y="138"/>
      <point x="209" y="86"/>
      <point x="284" y="86" type="curve" smooth="yes"/>
      <point x="346" y="86"/>
      <point x="415" y="136"/>
      <point x="415" y="230" type="curve" smooth="yes"/>
      <point x="415" y="324"/>
      <point x="346" y="374"/>
      <point x="284" y="374" type="curve" smooth="yes"/>
      <point x="209" y="374"/>
      <point x="146" y="322"/>
    </contour>
    <contour>
      <point x="336" y="602" type="curve" smooth="yes"/>
      <point x="336" y="640"/>
      <point x="367" y="672"/>
      <point x="407" y="672" type="curve" smooth="yes"/>
      <point x="447" y="672"/>
      <point x="478" y="640"/>
      <point x="478" y="602" type="curve" smooth="yes"/>
      <point x="478" y="564"/>
      <point x="447" y="532"/>
      <point x="407" y="532" type="curve" smooth="yes"/>
      <point x="367" y="532"/>
      <point x="336" y="564"/>
    </contour>
    <contour>
      <point x="118" y="602" type="curve" smooth="yes"/>
      <point x="118" y="640"/>
      <point x="149" y="672"/>
      <point x="189" y="672" type="curve" smooth="yes"/>
      <point x="229" y="672"/>
      <point x="260" y="640"/>
      <point x="260" y="602" type="curve" smooth="yes"/>
      <point x="260" y="564"/>
      <point x="229" y="532"/>
      <point x="189" y="532" type="curve" smooth="yes"/>
      <point x="149" y="532"/>
      <point x="118" y="564"/>
    </contour>
  </outline>
</glyph>
<glyph name="aogonek.alt" format="1">
  <advance width="587"/>
  <outline>
    <contour>
      <point x="419" y="460" type="line"/>
      <point x="524" y="460" type="line"/>
      <point x="524" y="0" type="line"/>
      <point x="419" y="0" type="line"/>
    </contour>
    <contour>
      <point x="34" y="230" type="curve" smooth="yes"/>
      <point x="34" y="384"/>
      <point x="138" y="472"/>
      <point x="258" y="472" type="curve" smooth="yes"/>
      <point x="376" y="472"/>
      <point x="451" y="379"/>
      <point x="451" y="230" type="curve" smooth="yes"/>
      <point x="451" y="81"/>
      <point x="376" y="-12"/>
      <point x="258" y="-12" type="curve" smooth="yes"/>
      <point x="138" y="-12"/>
      <point x="34" y="76"/>
    </contour>
    <contour>
      <point x="146" y="230" type="curve" smooth="yes"/>
      <point x="146" y="138"/>
      <point x="209" y="86"/>
      <point x="284" y="86" type="curve" smooth="yes"/>
      <point x="346" y="86"/>
      <point x="415" y="136"/>
      <point x="415" y="230" type="curve" smooth="yes"/>
      <point x="415" y="324"/>
      <point x="346" y="374"/>
      <point x="284" y="374" type="curve" smooth="yes"/>
      <point x="209" y="374"/>
      <point x="146" y="322"/>
    </contour>
    <contour>
      <point x="518" y="-122" type="curve"/>
      <point x="550" y="-180" type="line"/>
      <point x="535" y="-200"/>
      <point x="506" y="-220"/>
      <point x="458" y="-220" type="curve" smooth="yes"/>
      <point x="382" y="-220"/>
      <point x="337" y="-182"/>
      <point x="337" y="-120" type="curve"/>
      <point x="424" y="-98" type="line"/>
      <point x="424" y="-130"/>
      <point x="440" y="-142"/>
      <point x="468" y="-142" type="curve" smooth="yes"/>
      <point x="492" y="-142"/>
      <point x="504" y="-135"/>
    </contour>
    <contour>
      <point x="424" y="-98" type="curve"/>
      <point x="337" y="-120" type="line"/>
      <point x="337" y="-58"/>
      <point x="402" y="-11"/>
      <point x="472" y="25" type="curve"/>
      <point x="512" y="0" type="line"/>
      <point x="460" y="-24"/>
      <point x="424" y="-64"/>
    </contour>
  </outline>
</glyph>
<glyph name="aring.alt" format="1">
  <advance width="588"/>
  <outline>
    <contour>
      <point x="419" y="460" type="line"/>
      <point x="524" y="460" type="line"/>
      <point x="524" y="0" type="line"/>
      <point x="419" y="0" type="line"/>
    </contour>
    <contour>
      <point x="34" y="230" type="curve" smooth="yes"/>
      <point x="34" y="384"/>
      <point x="138" y="472"/>
      <point x="258" y="472" type="curve" smooth="yes"/>
      <point x="376" y="472"/>
      <point x="451" y="379"/>
      <point x="451" y="230" type="curve" smooth="yes"/>
      <point x="451" y="81"/>
      <point x="376" y="-12"/>
      <point x="258" y="-12" type="curve" smooth="yes"/>
      <point x="138" y="-12"/>
      <point x="34" y="76"/>
    </contour>
    <contour>
      <point x="146" y="230" type="curve" smooth="yes"/>
      <point x="146" y="138"/>
      <point x="209" y="86"/>
      <point x="284" y="86" type="curve" smooth="yes"/>
      <point x="346" y="86"/>
      <point x="415" y="136"/>
      <point x="415" y="230" type="curve" smooth="yes"/>
      <point x="415" y="324"/>
      <point x="346" y="374"/>
      <point x="284" y="374" type="curve" smooth="yes"/>
      <point x="209" y="374"/>
      <point x="146" y="322"/>
    </contour>
    <contour>
      <point x="193" y="629" type="curve" smooth="yes"/>
      <point x="193" y="693"/>
      <point x="245" y="736"/>
      <point x="304" y="736" type="curve" smooth="yes"/>
      <point x="363" y="736"/>
      <point x="415" y="693"/>
      <point x="415" y="629" type="curve" smooth="yes"/>
      <point x="415" y="565"/>
      <point x="363" y="523"/>
      <point x="304" y="523" type="curve" smooth="yes"/>
      <point x="245" y="523"/>
      <point x="193" y="565"/>
    </contour>
    <contour>
      <point x="255" y="629" type="curve" smooth="yes"/>
      <point x="255" y="597"/>
      <point x="279" y="578"/>
      <point x="304" y="578" type="curve" smooth="yes"/>
      <point x="329" y="578"/>
      <point x="353" y="597"/>
      <point x="353" y="629" type="curve" smooth="yes"/>
      <point x="353" y="661"/>
      <point x="329" y="680"/>
      <point x="304" y="680" type="curve" smooth="yes"/>
      <point x="279" y="680"/>
      <point x="255" y="661"/>
    </contour>
  </outline>
</glyph>
<glyph name="atilde.alt" format="1">
  <advance width="588"/>
  <outline>
    <contour>
      <point x="419" y="460" type="line"/>
      <point x="524" y="460" type="line"/>
      <point x="524" y="0" type="line"/>
      <point x="419" y="0" type="line"/>
    </contour>
    <contour>
      <point x="34" y="230" type="curve" smooth="yes"/>
      <point x="34" y="384"/>
      <point x="138" y="472"/>
      <point x="258" y="472" type="curve" smooth="yes"/>
      <point x="376" y="472"/>
      <point x="451" y="379"/>
      <point x="451" y="230" type="curve" smooth="yes"/>
      <point x="451" y="81"/>
      <point x="376" y="-12"/>
      <point x="258" y="-12" type="curve" smooth="yes"/>
      <point x="138" y="-12"/>
      <point x="34" y="76"/>
    </contour>
    <contour>
      <point x="146" y="230" type="curve" smooth="yes"/>
      <point x="146" y="138"/>
      <point x="209" y="86"/>
      <point x="284" y="86" type="curve" smooth="yes"/>
      <point x="346" y="86"/>
      <point x="415" y="136"/>
      <point x="415" y="230" type="curve" smooth="yes"/>
      <point x="415" y="324"/>
      <point x="346" y="374"/>
      <point x="284" y="374" type="curve" smooth="yes"/>
      <point x="209" y="374"/>
      <point x="146" y="322"/>
    </contour>
    <contour>
      <point x="120" y="580" type="line"/>
      <point x="130" y="629"/>
      <point x="179" y="666"/>
      <point x="231" y="666" type="curve" smooth="yes"/>
      <point x="297" y="666"/>
      <point x="305" y="618"/>
      <point x="360" y="618" type="curve" smooth="yes"/>
      <point x="382" y="618"/>
      <point x="400" y="636"/>
      <point x="420" y="668" type="curve"/>
      <point x="476" y="612" type="line"/>
      <point x="460" y="575"/>
      <point x="413" y="534"/>
      <point x="358" y="534" type="curve" smooth="yes"/>
      <point x="303" y="534"/>
      <point x="277" y="584"/>
      <point x="230" y="584" type="curve" smooth="yes"/>
      <point x="190" y="584"/>
      <point x="181" y="547"/>
      <point x="181" y="532" type="curve"/>
    </contour>
  </outline>
</glyph>
